<svg xmlns="http://www.w3.org/2000/svg" fill="none" viewBox="0 0 107 106"><path fill="#1A1F2C" d="M48.202 100.912l.06-.936 3.81.245-.06.936-3.81-.245zm-18.67-3.348c-.141.411-.1.803.124 1.176.225.373.575.674 1.05.903.349.168.68.258.996.271.313.012.59-.045.83-.172a1.24 1.24 0 00.539-.569c.1-.21.138-.414.11-.613a1.475 1.475 0 00-.212-.56 3.112 3.112 0 00-.382-.483 6.867 6.867 0 00-.408-.381l-.695-.6a7.727 7.727 0 01-.576-.551 3.502 3.502 0 01-.54-.738 2.192 2.192 0 01-.275-.899c-.03-.326.045-.673.222-1.042a2.3 2.3 0 01.889-.991c.385-.237.839-.354 1.361-.352.52.001 1.082.147 1.686.438.563.272 1.007.597 1.332.977.322.38.522.788.6 1.227.077.437.027.878-.15 1.322l-.982-.473a1.37 1.37 0 00.056-.881 1.801 1.801 0 00-.461-.752 3.003 3.003 0 00-.81-.56 2.86 2.86 0 00-1.063-.294 1.865 1.865 0 00-.928.168 1.313 1.313 0 00-.616.63c-.125.261-.155.509-.088.743.067.234.195.46.384.676.189.218.403.43.642.64l.834.743c.53.473.895.959 1.095 1.46.2.5.174 1.014-.082 1.544-.212.44-.516.767-.911.98-.4.214-.846.315-1.338.302a3.625 3.625 0 01-1.496-.38c-.507-.244-.913-.552-1.22-.923a2.594 2.594 0 01-.582-1.189 2.038 2.038 0 01.144-1.24l.921.443zm-11.792-9.23l.806.685a2.197 2.197 0 00-.217 1.628c.063.263.17.511.322.745.152.234.338.445.56.633.401.342.853.55 1.352.625.498.073 1.011-.006 1.54-.238.528-.234 1.037-.639 1.527-1.214s.808-1.142.954-1.7c.145-.56.142-1.08-.01-1.56a2.662 2.662 0 00-.834-1.235 2.909 2.909 0 00-.713-.45 2.442 2.442 0 00-.784-.204 2.245 2.245 0 00-1.576.478l-.805-.685a3.53 3.53 0 011.107-.63 3.271 3.271 0 012.344.08c.377.153.733.373 1.068.658.567.483.953 1.05 1.159 1.703.205.652.217 1.342.036 2.068-.182.726-.57 1.439-1.168 2.14-.596.7-1.238 1.199-1.926 1.494-.688.295-1.37.393-2.047.294-.677-.099-1.299-.39-1.866-.872a3.924 3.924 0 01-.82-.95 3.383 3.383 0 01-.436-1.11 3.214 3.214 0 01-.017-1.19c.066-.402.214-.8.445-1.193zm.85-8.141l-7.158 4.993-1.687-2.419c-.39-.559-.615-1.084-.674-1.576a2.23 2.23 0 01.223-1.341c.21-.403.527-.752.949-1.046.421-.294.856-.469 1.302-.524.447-.055.887.03 1.322.257.433.228.843.62 1.23 1.174l1.365 1.957-.783.546-1.346-1.929c-.266-.382-.537-.65-.811-.806a1.292 1.292 0 00-.831-.178 1.944 1.944 0 00-.853.356c-.287.2-.5.428-.64.685-.14.256-.185.543-.138.86.046.318.203.67.473 1.057l1.063 1.524 6.39-4.457.604.867zm-5.566-1.126l1.987-4.005.702 1.007-2.006 3.976-.683-.978zM6.313 65.722c.864-.318 1.668-.437 2.412-.356.744.08 1.387.33 1.928.748.541.418.94.976 1.198 1.675.257.698.315 1.382.174 2.052-.142.67-.47 1.276-.984 1.82-.514.543-1.203.974-2.067 1.291-.864.318-1.668.437-2.412.357-.744-.08-1.386-.33-1.928-.748-.541-.419-.94-.977-1.198-1.676-.257-.698-.315-1.382-.173-2.052.14-.669.468-1.275.983-1.819.514-.543 1.203-.974 2.067-1.292zm.353.96c-.709.26-1.264.6-1.664 1.016-.402.415-.654.87-.756 1.364a2.64 2.64 0 00.118 1.482c.183.496.473.899.872 1.21.398.307.884.49 1.46.547.574.056 1.216-.047 1.925-.308.709-.261 1.264-.599 1.666-1.013.4-.417.652-.871.756-1.364.102-.494.062-.99-.12-1.486a2.64 2.64 0 00-.87-1.205c-.4-.31-.886-.493-1.46-.548-.575-.058-1.217.044-1.927.305zm2.74-7.878l-8.686.838-.102-1.052 7.754-.748-.39-4.038.933-.09.491 5.09zM9.241 47.42L.626 46.026l.168-1.044 7.69 1.244.648-4.005.925.15-.816 5.047zm6.038-17.731l-1.396 2.303-7.463-4.524 1.458-2.406c.438-.724.963-1.252 1.574-1.586a3.432 3.432 0 011.998-.41c.72.062 1.466.327 2.239.795.777.471 1.363 1.016 1.756 1.633.39.615.576 1.28.556 1.991-.022.711-.263 1.446-.722 2.204zm-1.65.913l.813-1.341c.374-.617.565-1.2.573-1.75a2.574 2.574 0 00-.467-1.524c-.319-.466-.782-.883-1.39-1.251-.602-.366-1.18-.582-1.734-.648a2.546 2.546 0 00-1.54.272c-.473.248-.887.664-1.24 1.247l-.875 1.443 5.86 3.552zm8.635-15.89c.64.661 1.075 1.348 1.302 2.061.228.713.26 1.401.097 2.066-.163.664-.512 1.255-1.047 1.773-.535.518-1.137.848-1.806.99-.67.142-1.357.088-2.062-.163-.705-.25-1.378-.706-2.018-1.367-.64-.661-1.075-1.348-1.302-2.061-.228-.713-.26-1.402-.097-2.066.164-.665.513-1.256 1.047-1.773.535-.518 1.137-.848 1.806-.99.67-.142 1.357-.088 2.062.163.705.25 1.378.706 2.018 1.367zm-.734.711c-.526-.542-1.06-.913-1.604-1.11-.541-.2-1.059-.246-1.553-.14a2.643 2.643 0 00-1.307.709c-.38.367-.63.796-.753 1.287-.12.488-.09 1.007.09 1.556.182.547.536 1.092 1.062 1.635.525.543 1.059.914 1.6 1.114.543.198 1.06.244 1.553.14.494-.107.93-.344 1.31-.712s.63-.796.75-1.284c.122-.49.092-1.009-.09-1.556-.18-.55-.533-1.096-1.058-1.639zm7.673-.323L22.84 8.668l.935-.527 5.078 5.299.074-.042-1.87-7.105 1.04-.586 5.107 5.282.074-.042-1.898-7.088.935-.527 2.204 8.775-.95.535-5.092-5.114-.06.033 1.735 7.005-.95.536zM43.325.135l2.213 8.442-.989.26-6.338-5.423-.083.022 1.738 6.628-1.022.268L36.63 1.89l.99-.259 6.359 5.434.082-.022L42.32.4l1.005-.264zm18.51 4.33l-.12.93-3.787-.488.12-.93 3.787.488zm18.416 4.537a1.338 1.338 0 00-.048-1.181c-.2-.387-.53-.71-.99-.969a2.544 2.544 0 00-.976-.334 1.62 1.62 0 00-.84.119c-.246.112-.437.29-.574.532a1.065 1.065 0 00-.15.606c.019.199.077.39.176.573.1.18.218.35.351.506.135.154.263.29.383.406l.655.643c.169.163.349.36.54.587.193.23.357.487.49.77.138.284.21.588.218.916.008.327-.088.669-.289 1.025a2.292 2.292 0 01-.95.932c-.4.212-.86.3-1.381.264-.519-.034-1.07-.216-1.654-.545-.545-.306-.967-.66-1.267-1.06a2.587 2.587 0 01-.521-1.262c-.048-.442.03-.878.234-1.311l.95.535a1.365 1.365 0 00-.111.876 1.8 1.8 0 00.412.78 3 3 0 00.771.61c.352.198.7.32 1.043.363.345.041.657.005.937-.108.28-.116.498-.313.654-.59.143-.253.188-.498.136-.736a1.782 1.782 0 00-.34-.7 6.706 6.706 0 00-.6-.68l-.785-.794c-.497-.506-.83-1.014-.998-1.526-.169-.512-.108-1.024.18-1.537.24-.426.564-.732.973-.92a2.63 2.63 0 011.354-.215c.494.044.983.202 1.468.475.49.276.877.61 1.159 1 .283.388.452.795.504 1.223a2.04 2.04 0 01-.222 1.23l-.892-.503zm11.176 9.968l-.76-.736a2.195 2.195 0 00.321-1.611 2.386 2.386 0 00-.274-.764 2.908 2.908 0 00-.517-.667 2.662 2.662 0 00-1.31-.711c-.492-.105-1.01-.059-1.553.139-.541.2-1.075.57-1.6 1.114-.526.542-.88 1.088-1.062 1.635-.18.55-.21 1.068-.09 1.556.123.49.374.92.753 1.287.208.202.436.367.683.495.247.13.504.213.77.253a2.246 2.246 0 001.603-.375l.76.735a3.52 3.52 0 01-1.146.558 3.272 3.272 0 01-2.333-.23 3.924 3.924 0 01-1.025-.726c-.534-.518-.883-1.109-1.047-1.773-.163-.664-.13-1.353.097-2.066.227-.713.662-1.4 1.302-2.06.64-.662 1.313-1.118 2.018-1.368.705-.25 1.393-.305 2.062-.163.67.142 1.271.472 1.806.99.316.306.569.64.757 1 .19.363.312.742.365 1.137.054.392.035.788-.06 1.188a3.478 3.478 0 01-.52 1.162zm-1.369 8.069l7.463-4.524 1.529 2.521c.353.583.544 1.122.571 1.617a2.23 2.23 0 01-.309 1.324 2.934 2.934 0 01-1.013.983c-.44.267-.884.413-1.333.44a2.223 2.223 0 01-1.303-.342c-.418-.255-.802-.672-1.152-1.25l-1.237-2.04.816-.496 1.22 2.012c.241.398.494.684.758.856.265.175.538.252.818.232.284-.02.575-.12.874-.301.299-.181.526-.396.682-.643.156-.247.22-.53.192-.85-.024-.32-.16-.681-.403-1.085l-.964-1.588-6.661 4.038-.548-.904zm5.482 1.48l-2.239 3.87-.636-1.05 2.257-3.84.618 1.02zm5.843 13.747c-.883.262-1.692.33-2.43.201-.737-.127-1.362-.417-1.876-.87-.513-.452-.876-1.035-1.088-1.748-.212-.714-.226-1.4-.042-2.06.184-.658.55-1.242 1.098-1.752s1.263-.895 2.146-1.157c.882-.262 1.692-.329 2.429-.2.738.127 1.363.417 1.876.87.514.451.877 1.034 1.088 1.748.212.713.226 1.4.042 2.059-.183.659-.549 1.243-1.097 1.752-.549.51-1.264.895-2.146 1.157zm-.291-.98c.724-.215 1.3-.518 1.726-.908.427-.388.708-.825.842-1.312.135-.485.127-.98-.023-1.487a2.669 2.669 0 00-.793-1.263c-.377-.332-.851-.546-1.421-.64-.57-.092-1.217-.03-1.941.185-.725.215-1.3.516-1.728.904-.426.39-.707.827-.842 1.312-.134.487-.126.984.025 1.49.15.507.414.927.791 1.26.378.334.852.548 1.422.64.57.094 1.217.034 1.942-.181zm-3.24 7.686l8.723-.28.034 1.057-7.786.25.13 4.054-.937.03-.164-5.11zm-.564 11.372l8.508 1.942-.235 1.03-7.594-1.733-.903 3.955-.914-.208 1.138-4.986zm-7.162 17.307l1.541-2.208 7.158 4.993-1.61 2.306c-.484.695-1.041 1.189-1.672 1.483a3.431 3.431 0 01-2.02.28c-.714-.107-1.442-.42-2.183-.936-.746-.52-1.295-1.1-1.648-1.742a3.462 3.462 0 01-.428-2.023c.068-.708.355-1.425.862-2.153zm1.705-.805l-.897 1.286c-.413.592-.64 1.162-.684 1.71-.043.549.08 1.066.368 1.55.289.486.724.932 1.307 1.338.578.403 1.14.656 1.69.758.55.104 1.069.046 1.554-.173.488-.217.927-.606 1.317-1.165l.965-1.384-5.62-3.92zM82.195 92.15c-.596-.701-.985-1.415-1.167-2.14-.181-.727-.17-1.416.036-2.068.206-.653.592-1.22 1.159-1.703.567-.483 1.188-.773 1.865-.872.677-.099 1.36 0 2.047.294.688.296 1.33.793 1.927 1.494s.986 1.415 1.167 2.14c.182.727.17 1.416-.036 2.069-.205.652-.591 1.22-1.158 1.702-.567.483-1.189.773-1.866.872-.677.099-1.36 0-2.047-.294-.688-.296-1.33-.793-1.927-1.494zm.78-.663c.49.575.999.979 1.528 1.21.528.235 1.041.314 1.541.24a2.637 2.637 0 001.35-.624c.402-.342.68-.754.834-1.236.151-.48.154-.999.01-1.559-.147-.558-.465-1.124-.955-1.7-.49-.575-.998-.98-1.526-1.213-.53-.232-1.043-.312-1.54-.24-.5.076-.951.284-1.353.627a2.63 2.63 0 00-.831 1.233c-.154.481-.157 1.001-.01 1.559.144.56.461 1.127.951 1.703zm-7.679-.169l5.937 6.827-.967.466-4.728-5.613-.076.037 1.41 7.211-1.075.517-4.758-5.598-.077.037 1.44 7.196-.967.466-1.636-8.899.982-.473 4.753 5.43.062-.03-1.282-7.101.983-.473zm-15.051 14.03l-1.668-8.567 1.003-.195 5.978 5.817.084-.017-1.31-6.726 1.037-.202 1.669 8.567-1.004.195-5.998-5.83-.084.016 1.313 6.743-1.02.199z"/></svg>