<svg xmlns="http://www.w3.org/2000/svg" fill="none" viewBox="0 0 33 32"><g clip-path="url(#a)"><path fill="#FFD02F" d="M7.063 0h18.133c3.8 0 6.934 3.133 6.934 6.933v18.134c0 3.8-3.134 6.933-6.934 6.933H7.064C3.263 32 .13 28.867.13 25.067V6.933C.13 3.133 3.263 0 7.063 0z"/><path fill="#050038" fill-rule="evenodd" d="M22.33 4h-3.534l2.934 5.133L15.33 4h-3.534l3.2 6.267L8.33 4H4.796l3.534 8-3.534 16H8.33l6.733-17.133L11.796 28h3.534l6.466-18.267L18.863 28h3.533l6.4-20-6.466-4z" clip-rule="evenodd"/></g><defs><clipPath id="a"><path fill="#fff" d="M.13 0h32v32h-32z"/></clipPath></defs></svg>